<svg version="1" xmlns="http://www.w3.org/2000/svg" width="361.333" height="361.333" viewBox="0 0 271.000000 271.000000"><path d="M108.8 71.5c-.2.1-4.1.5-8.8.8-12.3.9-25.5 3.7-36.6 7.8l-5.4 2v7.6c0 6.7.2 7.4 1.8 6.8 7.9-3 21.8-7.5 26.7-8.6 3.3-.7 6.2-1.3 6.5-1.4 7.2-2 25.6-2.2 32.1-.5 6.4 1.7 13.1 5.6 15.5 9 6.8 9.7-1.8 28.4-16.5 35.9-5.3 2.8-6 2.7-10-1.4-2.9-3-4.1-3.5-8-3.6-2.5 0-7.4-.2-10.8-.3-3.5-.2-6.3-.1-6.3.2 0 .6 13.4 16.4 25.6 30.2 2.7 3.1 7.2 8.2 10 11.5 2.9 3.3 9.8 11.3 15.4 17.7l10.1 11.8h31.2l-1.9-2.2c-2.6-3-12.4-13.6-21.4-23.3-4.2-4.4-10.3-10.9-13.5-14.4-3.3-3.5-7.7-8.2-9.8-10.3l-3.7-4 5.4-3.8c13.3-9.3 20.8-19.5 22.8-30.7 2.7-16-3.2-26.3-18.3-31.6-7.5-2.7-9.7-3.1-20.4-4.3-9.9-1-11.4-1.1-11.7-.9z"/><path d="M168.1 78c-.4.3-.7 21.1-.7 46.3l.1 45.7 8.3 9c4.6 5 8.7 9 9.1 9 .5 0 .7-11.1.7-24.7l-.1-24.7 4.5-1.4c2.5-.7 7.9-1.5 12-1.7 8.3-.3 8.8-.8 8.2-7.4l-.4-3.8h-11.9c-6.6 0-12.2-.2-12.4-.5-.4-.3-.8-21.6-.6-28l.1-2.6 22.5.2 22.6.2-.3-8-.3-8.1h-30.3c-16.7 0-30.6.2-31.1.5zM54 177.3c-8.7 4.4-5.2 17.2 5.1 18.4 6.3.7 8.9-.8 8.9-5.2 0-1.8.6-3.6 1.3-3.8.6-.3.3-.6-.8-.6-3.1-.1-4.3 1.1-4.7 4.9-.2 2.9-.7 3.6-2.9 3.8-1.4.2-3.6-.5-4.9-1.6-2-1.6-2.4-2.9-2.5-7.2 0-4.3.4-5.5 2.4-7.1 3.6-2.9 6.8-2.4 9.1 1.3 1.7 2.9 2 3 2 1.1 0-4.5-7.5-6.8-13-4zM73.8 183.7c.5 1 .8 4.2.8 7-.1 3.7.2 5.3 1.1 5.3.8 0 1.3-1.2 1.3-3 0-1.7.5-3 1-3 .6 0 1 .6 1 1.4 0 1.7 3.7 4.6 5.9 4.6 1 0 .9-.5-.6-1.8-2.7-2.4-3.5-4.9-1.7-5.6 2-.8 1.7-4.4-.5-5.6-1.1-.5-3.6-1-5.6-1-3.1 0-3.4.2-2.7 1.7zm6.7 2.3c0 1.6-.6 2.6-1.7 2.8-1.4.3-1.8-.3-1.8-2.8s.4-3.1 1.8-2.8c1.1.2 1.7 1.2 1.7 2.8zM87.8 183.1c.6.7 1.2 3.2 1.2 5.5 0 4.8 1.9 7.4 5.5 7.4 4 0 5.5-2.5 5.3-8.8l-.2-5.7-.3 5.5c-.5 6-1.6 8-4.5 8-2.3 0-3-1.8-3.2-7.8-.1-4.2-.4-4.7-2.6-5-2-.3-2.3-.1-1.2.9zM103.8 182.8c.8.6 1.3 3.1 1.3 7 .1 4.7.4 6.2 1.5 6.2.9 0 1.4-1.1 1.4-2.9 0-2.5.5-3 2.6-3.3 3.5-.4 5.3-3.1 3.8-5.6-.8-1.2-2.7-1.8-6.5-2-3.3-.1-4.9.1-4.1.6zm7.7 3.2c0 1.6-.6 2.6-1.7 2.8-1.4.3-1.8-.3-1.8-2.8s.4-3.1 1.8-2.8c1.1.2 1.7 1.2 1.7 2.8zM121.7 182.7c-3.8 1-4.8 8.2-1.5 11.3 4.4 4.1 10.5 1.9 11.4-4 .9-5.8-3.4-9-9.9-7.3zm6.3 2.4c1.3 2.2 1.1 6.7-.3 8.6-2.4 3.3-6.7.2-6.7-4.7 0-5.4 4.8-8.1 7-3.9z"/></svg>